<?xml version="1.0" encoding="UTF-8"?>
<svg width="942px" height="469px" viewBox="0 0 942 469" version="1.1" xmlns="http://www.w3.org/2000/svg" xmlns:xlink="http://www.w3.org/1999/xlink">
    <!-- Generator: Sketch 57.1 (83088) - https://sketch.com -->
    <title>Group 63</title>
    <desc>Created with Sketch.</desc>
    <defs>
        <path d="M239.9744,460.5566 L240.1304,460.6406 L255.7544,468.7926 L240.9944,468.2466 L236.3284,463.9626 L239.9744,460.5566 Z M220.0574,31.1266 L221.1754,38.0686 L225.9194,38.5606 L224.8634,43.8786 L234.4174,37.5546 L234.5074,37.5666 L242.2714,38.4266 L234.1174,46.9106 L215.4394,48.9666 L218.0034,52.7586 L205.3414,55.0686 L183.9434,70.9066 L205.4934,82.6006 L205.4934,82.6026 L205.4914,82.6786 L205.4914,82.7506 L205.3734,94.5886 L211.1094,94.5706 L236.3674,57.8086 L245.9314,57.8086 L252.9714,63.7966 L252.8754,71.9266 L267.1054,66.3266 L267.1274,66.6646 L268.4354,84.2906 L279.3534,86.1806 L279.2674,90.1766 L279.1354,90.2446 L264.0694,98.2366 L244.2234,99.0946 L231.9914,104.9626 L231.9914,107.7986 L244.7714,101.9986 L247.0614,104.1866 L242.9254,110.6006 L246.8814,114.1666 L257.0314,114.6486 L237.1974,121.6166 L236.4534,118.3546 L241.7534,115.8266 L233.5334,117.2446 L233.4874,117.3826 L229.7054,118.0366 L175.5254,164.3606 L175.3834,185.3806 L169.5954,185.2266 L169.5674,185.0146 L167.3774,168.4566 L134.1574,168.3506 L119.8734,186.2846 L119.8674,186.2706 L114.1374,193.4626 L121.3194,208.9366 L136.0594,208.9306 L141.5234,199.9666 L148.7934,200.0946 L148.5414,206.4906 L148.9074,206.2166 L148.5254,206.9426 L148.5094,207.2906 L148.2294,207.5006 L143.1974,216.9986 L143.1974,217.0026 L142.8274,217.6946 L142.8234,217.6766 L142.4594,218.3326 L142.2754,218.6666 L157.8634,218.5106 L158.1914,218.2366 L158.1974,218.5086 L158.6514,218.5046 L158.2074,218.8746 L158.6414,237.9586 L158.6234,237.9566 L158.6754,240.2326 L160.8574,241.4426 L164.0754,243.2186 L166.7374,240.9986 L174.7694,240.2926 L175.7894,244.0126 L179.0654,243.7966 L186.2514,234.0906 L189.5454,234.1086 L189.8214,234.1106 L190.0454,234.1106 L206.8174,234.2726 L206.8814,234.3166 L214.1274,239.4786 L227.2454,240.7606 L230.7094,244.0746 L230.7054,244.0906 L240.7474,253.6406 L255.8414,254.9446 L263.0414,270.6846 L258.7354,277.0366 L264.6394,272.4926 L269.9334,274.7866 L267.6754,280.8706 L274.6194,276.8026 L282.3434,280.1426 L282.3434,280.1446 L281.9294,284.4666 L297.8354,285.4346 L297.8914,285.4706 L314.4674,296.2666 L314.4674,304.4446 L314.4134,304.5126 L304.3954,317.6206 L300.0474,349.9326 L276.7214,360.2546 L274.4534,374.7066 L264.9734,391.2346 L264.9874,391.2446 L260.0474,399.8066 L248.8534,395.6966 L258.4394,409.0466 L236.5134,418.5386 L238.4594,458.9186 L234.9294,458.5586 L234.9314,458.5626 L229.6654,458.0186 L215.2274,439.3486 L215.2254,439.2686 L214.8494,425.6606 L206.5914,418.9846 L206.5854,418.8706 L203.4514,342.4946 L184.8214,329.9866 L163.1854,293.1406 L163.1894,293.0646 L163.4394,289.0546 L163.4674,289.0686 L164.1914,277.5266 L164.2394,277.4646 L170.1854,269.9786 L170.1794,269.9726 L174.4994,264.5166 L175.8794,255.4586 L174.5614,251.0706 L174.5534,251.0846 L173.0134,245.9926 L168.3894,245.5426 L166.2734,248.7026 L166.0914,248.6366 L155.3074,244.7926 L155.2594,244.7306 L149.1374,236.4526 L149.1574,236.4526 L145.0634,230.9326 L144.4614,230.1226 L138.1194,227.2606 L137.6354,227.0426 L137.6314,227.0526 L137.1774,226.8386 L137.1834,226.8266 L129.7594,223.0886 L129.6994,223.1946 L129.4354,222.9246 L129.2014,222.8066 L129.2454,222.7306 L124.1974,217.5806 L118.1534,219.1846 L118.0734,219.1526 L93.5194,208.9106 L93.4794,208.8186 L78.4594,173.4866 L78.2834,164.8926 L74.1074,164.8926 L74.1074,174.0886 L82.0874,191.1026 L77.5794,194.5866 L67.3734,175.2306 L65.9934,160.6406 L56.5874,151.2346 L56.5874,130.3106 L56.6554,130.2386 L82.0514,103.4506 L82.0514,100.1006 L75.1014,93.7946 L75.1314,93.6546 L78.9894,76.0046 L69.1454,66.1586 L36.0854,67.3126 L7.2914,81.0606 L7.2254,81.0566 L0.9994,80.5706 L15.9254,70.7626 L8.4374,70.8886 L17.9134,58.0506 L17.9834,58.0246 L35.4414,51.4766 L21.7874,51.9686 L25.4594,46.8406 L25.5914,46.8426 L42.7294,47.0546 L42.7294,40.2666 L42.8854,40.2026 L58.4374,33.9566 L96.7094,33.7406 L96.7574,33.7586 L103.9574,36.7266 L105.3594,36.1286 L104.6474,36.7426 L150.1454,35.7906 L150.1934,35.8106 L174.2714,45.4326 L184.2074,40.7726 L184.2874,40.7906 L203.0474,44.3166 L213.5454,39.3086 L211.4434,34.9506 L220.0574,31.1266 Z M922.011,421.7852 L922.011,426.3252 L921.897,426.3992 L898.371,441.8832 L898.235,441.8072 L890.833,437.5772 L891.247,437.3692 L922.011,421.7852 Z M938.4094,400.2152 L938.4094,406.9072 L942.7134,412.6472 L927.2994,423.6272 L929.5814,416.4132 L935.5114,410.4872 L935.5114,401.4252 L938.4094,400.2152 Z M863.1108,317.2484 L867.9748,318.7984 L868.0048,318.9404 L872.9948,342.8904 L888.6188,364.9224 L888.6088,365.0144 L887.0008,381.7024 L886.9408,381.7644 L858.4608,411.2464 L858.3468,411.2404 L833.5488,409.8284 L830.5708,393.3444 L822.3128,396.8824 L822.1968,396.7784 L814.2908,389.8624 L765.6648,400.4684 L765.5688,400.3504 L762.4708,396.6344 L762.5308,396.4944 L766.5108,386.9404 L766.5108,358.4324 L766.6548,358.3644 L792.2088,346.3864 L811.2968,325.2904 L811.4628,325.3624 L821.6388,329.8644 L826.2028,320.3444 L826.3548,320.3404 L844.1888,319.9304 L839.6768,328.1344 L853.7468,340.2484 L863.1108,330.8884 L863.1108,317.2484 Z M678.1296,16.6582 L680.7096,25.8882 L722.4836,25.8882 L730.2036,31.6862 L748.5436,31.6862 L755.0016,25.8722 L755.1196,25.8922 L778.0996,29.6482 L781.7876,34.6582 L847.2676,36.5242 L889.7056,44.9282 L889.7636,44.9862 L896.7656,52.5002 L887.9536,52.3262 L875.9016,49.8422 L871.1076,53.5762 L884.3956,57.1922 L884.0096,60.3182 L883.8556,60.3662 L857.2956,68.7762 L868.4496,79.5122 L868.4496,98.6682 L847.7636,79.0742 L847.7696,78.9582 L848.3776,68.6982 L853.2036,65.4102 L848.3296,60.7462 L845.7276,60.4782 L845.6856,64.9982 L833.6376,60.4402 L830.5816,69.9922 L830.3976,69.9922 L802.2756,69.7782 L799.9876,86.2462 L813.5556,86.4562 L813.6276,86.5402 L827.8696,102.7162 L827.8696,116.6302 L827.8276,116.6942 L822.8076,124.1822 L813.7516,125.7742 L814.6096,135.6462 L810.0056,136.2462 L822.1276,146.1662 L822.1076,146.3062 L821.0176,153.7022 L814.4056,154.1582 L809.2216,142.9382 L804.3276,141.5702 L804.2776,141.4742 L800.6896,134.6662 L794.0696,139.2202 L789.3656,130.2422 L782.8816,135.9102 L788.0396,144.3802 L790.6456,142.6962 L799.8876,142.6962 L792.1516,151.1322 L806.6796,175.0442 L806.6276,175.1642 L798.4256,193.5262 L798.3236,193.5622 L773.0436,202.5962 L772.8856,198.5682 L768.8696,200.8502 L768.8656,200.8462 L764.5376,203.2922 L763.9176,210.5102 L776.8056,224.1162 L776.8096,224.2122 L777.2336,236.4922 L777.1176,236.5702 L764.3796,244.9782 L764.2156,237.8882 L760.0316,238.4662 L756.0776,234.5302 L748.7156,227.2462 L747.1776,242.3162 L753.9196,252.2482 L754.0076,252.3802 L754.0136,252.3902 L754.2296,252.7082 L764.7896,268.3142 L763.7816,272.2522 L763.4876,272.0002 L752.0636,262.2622 L752.0416,262.1942 L748.6216,251.1042 L741.5036,245.0702 L741.6776,242.1822 L741.6756,242.1862 L742.3676,230.9862 L739.7716,221.3642 L735.2896,216.3082 L732.8296,219.3882 L728.9836,218.2382 L728.9536,218.0882 L727.0516,208.1362 L722.4436,204.2822 L722.2316,204.1022 L721.9936,203.9042 L711.1116,194.7762 L708.8856,196.9322 L708.5016,197.3042 L708.4836,197.3222 L685.2996,219.7142 L683.6976,238.5462 L683.5916,238.6142 L673.0056,245.1162 L672.9036,244.8242 L656.7016,198.2282 L655.0816,198.2122 L654.1776,202.4362 L648.7856,201.7962 L648.7236,201.7122 L645.7696,197.8802 L648.6176,194.9562 L642.5556,193.0382 L641.8576,192.2142 L637.2856,187.0102 L619.9456,187.0102 L619.9436,187.0122 L614.1276,187.0022 L593.8856,180.9642 L593.8416,180.9162 L582.9416,169.5482 L578.1896,169.0922 L577.9716,168.7222 L577.8696,168.7242 L575.0116,168.7422 L578.4816,174.3842 L578.5336,174.4722 L578.7876,174.8842 L578.7856,174.8842 L585.6236,186.0562 L586.1776,186.4202 L587.6116,181.8122 L591.1436,186.7922 L589.4276,188.5682 L591.2176,189.7482 L597.7496,191.0322 L603.1176,184.9922 L606.8836,188.3322 L615.9436,196.3962 L615.7956,196.5822 L599.5656,216.6902 L599.7096,216.7882 L599.3576,216.9482 L599.2516,217.0802 L599.1756,217.0302 L566.4836,231.7702 L566.4016,231.4982 L561.4616,215.4002 L536.7156,172.4062 L534.7396,177.0342 L528.5676,172.0022 L540.7636,192.9522 L540.7576,192.9582 L540.7796,193.0002 L566.9116,237.9082 L591.0976,234.3182 L592.5896,241.7502 L592.5096,241.8442 L552.4256,288.4922 L552.0376,288.9442 L552.6676,295.9582 L554.1956,313.0002 L555.9836,329.7882 L555.8776,329.8742 L538.0956,344.4562 L538.6536,360.4882 L531.0136,365.8242 L530.8176,367.2762 L530.8296,367.2762 L529.8956,373.7382 L529.8476,373.7942 L510.2736,396.4402 L484.6436,396.4402 L484.5856,396.2762 L476.7436,374.8022 L476.7696,374.8022 L463.7036,337.9722 L463.6496,337.9722 L463.6336,337.7742 L463.5256,337.4722 L463.6076,337.4722 L463.1036,331.2202 L463.1476,331.1522 L469.1096,321.3302 L469.1096,298.0222 L468.9796,297.8482 L467.2816,295.5902 L467.2796,295.5902 L463.9496,291.1522 L463.9496,291.1542 L463.5216,290.5822 L463.4496,290.4862 L456.1876,280.7802 L456.3656,272.2902 L456.3636,272.2902 L456.5036,266.9922 L456.4836,266.9922 L456.6436,259.7102 L444.4596,259.7102 L443.1736,253.9842 L434.0536,252.6562 L433.8656,252.7082 L428.1696,254.3402 L416.7616,257.6362 L416.6096,257.6802 L399.7496,262.5482 L399.7496,262.9962 L399.4216,262.6442 L399.2496,262.6922 L399.2496,262.4582 L387.5276,249.8102 L387.5376,249.8002 L386.7496,248.9502 L382.3336,244.2022 L376.2176,237.5982 L371.7796,232.8082 L371.7856,232.7502 L371.7796,232.7502 L372.5096,212.4622 L372.5116,212.4142 L372.9596,199.4922 L372.9736,199.4922 L373.1336,195.0322 L387.9356,175.7522 L387.9376,175.7522 L405.2476,153.2282 L405.3536,153.2162 L423.4036,151.3342 L439.1976,145.2942 L439.2476,145.2942 L450.7716,145.6282 L450.7696,145.6202 L461.4596,145.9342 L461.4496,146.1862 L461.0376,157.5802 L464.0236,158.2962 L464.0356,158.2842 L473.4016,160.5342 L477.6576,165.6942 L488.1456,167.7882 L493.0176,160.4962 L493.1736,160.5162 L504.7016,162.0802 L504.7016,162.0762 L504.9736,162.1122 L532.8396,165.9002 L535.0216,157.8382 L536.1296,152.5862 L536.1916,152.2982 L536.2356,152.0922 L537.2956,147.1522 L512.2636,145.7682 L512.1956,145.6382 L506.5336,134.2622 L506.5356,134.2622 L513.4856,134.3182 L516.4396,130.7802 L516.5516,130.7762 L550.8896,129.6542 L550.8896,124.0902 L538.0496,119.5922 L537.3876,113.5762 L540.8596,112.6282 L539.6076,109.6422 L528.2436,112.0582 L532.8456,117.9342 L527.5036,118.3522 L523.5956,116.1422 L525.9716,113.6762 L515.1816,113.6762 L514.3536,116.2182 L514.2656,116.1822 L512.6636,121.1402 L512.6616,121.1402 L510.8476,126.7202 L513.4516,132.3242 L501.8996,132.3242 L496.0096,135.2222 L499.0636,141.8902 L496.0216,146.7002 L491.1796,140.6142 L494.1656,139.3482 L489.2996,137.9882 L486.5236,134.7802 L486.5176,134.7822 L485.9116,134.0722 L484.0716,130.6042 L481.4676,125.6982 L481.4176,125.6842 L479.8656,125.3002 L479.8676,125.3082 L477.8836,124.8142 L477.8316,124.7542 L471.1316,117.0082 L468.6296,117.1582 L468.6496,117.1482 L464.0496,117.4242 L483.4896,134.2482 L479.5136,135.0462 L478.6036,139.8762 L475.2376,141.8442 L474.3816,134.7582 L458.5156,118.9262 L453.2736,118.9262 L452.8536,124.9382 L438.3416,124.8342 L435.5416,128.4542 L435.5456,128.4582 L435.3776,128.6742 L421.3756,146.6522 L421.2416,146.6422 L418.1856,146.4122 L407.3796,145.6062 L407.3796,145.6082 L405.2076,145.4442 L401.8876,139.5762 L402.3356,122.1422 L425.0716,121.9782 L424.2216,110.6082 L417.5696,107.0142 L417.5696,104.2522 L423.3896,104.2522 L438.3076,95.3122 L448.9736,88.9302 L448.9736,88.9422 L454.6256,85.5582 L452.7276,81.0362 L455.4996,74.7902 L459.6976,74.8482 L458.2956,82.7302 L458.9936,85.4922 L470.4116,85.6222 L471.4696,85.6342 L480.8096,83.3562 L482.2936,84.7162 L488.4076,84.5142 L488.3876,81.2102 L488.4676,81.2382 L488.4636,80.5342 L488.4296,73.0882 L494.8436,76.0222 L495.3796,73.5822 L495.0216,73.3162 L494.9016,73.2242 L494.5016,72.9242 L494.5036,72.9242 L492.0576,71.0822 L492.9476,68.8182 L502.2176,68.6082 L503.8156,67.1102 L503.8136,67.0922 L504.9756,66.0082 L498.0896,65.9922 L494.3476,65.9822 L486.7956,62.1702 L493.0156,48.0782 L488.8476,48.0782 L476.0116,62.1142 L481.8236,69.3322 L481.6456,69.4902 L469.0556,80.6382 L461.5116,71.9502 L460.5616,70.8622 L448.6856,72.8022 L448.6096,72.6222 L444.5896,63.1922 L444.7576,63.0742 L484.1156,35.8342 L484.1856,35.8302 L484.3576,35.8222 L495.4096,35.2522 L495.4096,35.2482 L501.6576,34.9322 L501.6616,34.9382 L507.2536,34.6542 L534.9416,43.4822 L527.4536,47.2202 L527.3896,47.2182 L513.7016,46.7022 L518.2956,55.4542 L555.3136,40.2762 L594.6816,39.2122 L589.7236,27.9242 L600.5896,28.7842 L600.6376,28.9482 L606.3356,47.5642 L612.3256,41.3722 L604.8016,32.0542 L639.2796,16.6582 L678.1296,16.6582 Z M589.1,319.9922 L588.998,320.3162 L575.082,364.9582 L566.592,364.5822 L566.53,364.4382 L563.092,356.3102 L563.124,356.2182 L565.864,348.4782 L567.484,336.8442 L567.54,336.7862 L583.714,319.9922 L589.1,319.9922 Z M872.8502,280.3944 L872.9942,280.4704 L882.0302,285.1784 L882.0302,285.1884 L901.9222,295.5964 L901.3802,301.5484 L913.0462,313.2144 L903.1402,311.1904 L903.0862,311.1404 L893.3742,301.6644 L885.8202,308.6064 L870.2382,303.1724 L874.7762,300.4024 L872.5802,294.1584 L859.9322,288.8824 L854.5102,289.0724 L855.6142,283.6304 L864.5342,287.1444 L872.8502,280.3944 Z M828.4986,304.6756 L828.6066,304.8216 L837.0306,304.8216 L837.0306,307.5516 L830.7666,308.3096 L827.3626,311.3716 L822.9946,310.8176 L828.1586,305.0556 L827.9886,304.8216 L828.3686,304.8216 L828.4986,304.6756 Z M814.063,308.2428 L815.513,311.3608 L811.539,311.3608 L809.747,309.1728 L814.063,308.2428 Z M818.9672,303.8608 L819.0272,303.8928 L822.0772,305.6768 L819.7272,307.5808 L814.6952,307.5808 L813.5852,303.8608 L818.9672,303.8608 Z M771.3538,296.726 L779.4598,299.812 L786.7318,298.208 L786.8098,298.248 L798.5178,303.938 L799.1018,306.66 L798.7398,306.596 L765.9678,301.046 L771.3538,296.726 Z M917.8896,290.8152 L917.8896,295.4072 L917.7636,295.4792 L910.6956,299.4492 L906.1636,296.7432 L917.8896,290.8152 Z M732.8736,255.0914 L742.5796,258.8374 L768.4316,285.6494 L768.4316,292.4674 L763.3956,296.6514 L732.8736,255.0934 L732.8756,255.0934 L732.8736,255.0914 Z M817.7104,269.5772 L825.4744,271.4612 L827.7884,269.9392 L831.9884,270.0312 L827.4844,275.3512 L824.5884,275.6052 L819.1344,273.7212 L816.3824,276.7492 L817.7424,278.6352 L825.9024,278.2892 L820.7464,282.6212 L823.1904,288.0712 L823.1904,291.9032 L818.3084,290.2072 L818.2644,290.0992 L816.5704,285.6412 L814.7464,287.6692 L815.8844,294.2832 L811.7084,295.5712 L811.6524,295.2992 L809.7724,285.6912 L812.7664,281.7112 L812.4024,274.3652 L812.4904,274.2852 L817.7104,269.5772 Z M915.46,284.9678 L915.528,285.0078 L924.214,290.1818 L920.338,291.4998 L920.234,291.4258 L911.566,285.2158 L915.46,284.9678 Z M847.4502,284.6208 L847.4502,287.2568 L847.2262,287.2788 L838.4782,288.1788 L839.4922,284.6208 L847.4502,284.6208 Z M808.1486,252.4096 L808.1486,277.2376 L808.0966,277.3056 L800.2806,287.2796 L784.3766,287.2796 L784.3046,287.1556 L779.3506,278.4376 L779.0526,269.8436 L778.8686,269.7316 L779.0466,269.6496 L779.0446,269.6216 L779.4226,269.4736 L779.4246,269.4736 L795.1186,262.2196 L802.0266,252.9216 L808.1486,252.4096 Z M859.6806,277.4288 L860.9346,284.0968 L849.4126,278.8848 L859.6806,277.4288 Z M537.4296,273.3302 L532.0856,273.3302 L530.0916,276.8122 L530.0956,276.8122 L529.8396,277.2502 L529.8036,277.3122 L528.5556,279.4502 L533.9556,279.4502 L537.1636,273.8022 L537.4296,273.3302 Z M841.6404,264.9988 L843.3204,267.0488 L841.0224,269.9228 L841.9184,276.2808 L837.4804,275.2008 L837.5124,274.9728 L838.5844,268.0108 L841.6404,264.9988 Z M831.3212,239.6572 L834.8172,250.5672 L831.1132,251.5132 L832.6872,254.3812 L827.4092,255.9652 L827.4092,251.2992 L820.4412,246.3212 L828.7692,246.3212 L831.3212,239.6572 Z M811.9932,235.6212 L812.1332,240.0852 L806.3672,244.8772 L806.2512,244.8572 L802.6232,244.1392 L811.9932,235.6212 Z M822.2074,239.1394 L824.1514,242.0674 L822.1794,244.4434 L819.9514,241.7254 L822.2074,239.1394 Z M826.1312,235.9894 L828.1592,239.5294 L826.3852,241.8834 L823.4852,237.5074 L826.1312,235.9894 Z M818.6024,233.9016 L822.6124,234.3916 L819.6684,238.8396 L816.9104,236.9696 L818.6024,233.9016 Z M829.5452,231.2452 L833.2692,237.2412 L829.1572,237.2412 L825.6332,232.6952 L829.5452,231.2452 Z M813.754,228.3966 L817.548,232.1246 L816.222,234.5826 L813.212,231.6386 L813.754,228.3966 Z M810.9584,210.3352 L816.0224,210.4432 L816.0884,210.5872 L818.6944,216.3692 L818.6504,216.4712 L816.1304,222.2532 L818.5504,225.2732 L825.8564,226.0352 L824.5924,229.8252 L816.5304,228.8072 L816.4664,228.7312 L809.7804,220.6672 L810.9584,210.3352 Z M180.8042,208.2696 L183.0302,210.5176 L183.0302,212.9716 L176.7282,212.9716 L174.4902,211.0556 L174.4902,208.2696 L180.8042,208.2696 Z M778.409,205.0742 L778.409,208.3742 L775.105,212.5022 L772.749,209.6562 L772.749,206.3242 L778.409,205.0742 Z M215.2242,209.0512 L213.7002,211.5712 L209.7762,211.5712 L211.3002,209.0512 L215.2242,209.0512 Z M196.9266,205.2004 L197.1906,205.2304 L197.4266,205.2304 L197.4266,205.2564 L207.3566,206.3564 L205.7686,208.6904 L200.5186,208.6904 L196.9266,211.3584 L196.9266,209.7904 L189.2866,209.7904 L189.2866,208.0304 L192.5926,208.0304 L190.6126,205.2304 L196.9266,205.2304 L196.9266,205.2004 Z M173.1,192.6512 L173.166,192.6972 L190.334,205.0712 L175.158,205.0712 L178.38,201.4892 L170.704,196.3712 L160.26,196.3712 L164.168,192.6512 L173.1,192.6512 Z M809.1714,186.1552 L812.1074,189.2252 L809.3074,197.1292 L804.5694,192.7012 L809.1714,186.1552 Z M832.0008,157.513 L833.6748,159.997 L831.7988,165.931 L826.7748,158.173 L832.0008,157.513 Z M840.1396,155.8554 L837.4676,160.7074 L833.9436,156.7114 L840.1396,155.8554 Z M845.7444,131.2434 L850.1644,132.5254 L854.1904,139.6054 L854.6564,151.1514 L845.9544,153.3894 L845.6364,157.2934 L842.2744,158.7214 L841.2604,153.6574 L828.1724,155.5894 L829.2784,151.7594 L829.4164,151.7254 L840.1764,148.9554 L848.0444,141.8214 L845.7444,131.2434 Z M532.5762,149.2892 L530.1522,153.9852 L524.0342,152.4532 L532.5762,149.2892 Z M467.6934,147.6342 L473.0514,147.7762 L473.0274,152.6282 L467.6474,151.2442 L467.6934,147.6342 Z M578.3116,109.6182 L568.4496,113.6022 L568.4496,123.8322 L571.2856,128.8042 L571.3456,128.8182 L571.3976,128.9122 L575.9476,136.9282 L575.9456,136.9282 L581.1676,146.1362 L590.7196,146.1422 L590.8376,143.2762 L590.8356,143.2762 L591.2036,134.4662 L581.1296,126.1242 L581.1416,126.1202 L576.5856,122.3342 L576.8156,116.7982 L576.9496,116.7342 L583.8616,113.3802 L578.3116,109.6182 Z M473.4306,140.705 L473.4306,145.917 L468.2006,145.081 L465.1906,143.021 L465.1906,140.705 L473.4306,140.705 Z M452.6298,129.723 L456.8298,130.943 L456.8298,138.253 L452.6298,138.253 L452.6298,129.723 Z M438.6502,133.4884 L438.6502,138.0684 L433.3702,138.0684 L438.6502,133.4884 Z M840.7798,116.8238 L854.4598,122.5578 L851.7458,127.1958 L845.8458,127.2738 L843.9458,129.8518 L841.0538,128.1378 L841.0498,127.9998 L840.7798,116.8238 Z M457.7062,124.333 L456.7662,128.889 L454.4902,128.031 L454.4902,124.333 L457.7062,124.333 Z M184.3254,104.5486 L169.3434,107.7306 L167.7134,111.2546 L171.6614,111.2546 L175.4934,109.3946 L178.5534,111.2566 L185.0094,111.4766 L185.6774,113.7126 L175.8974,115.8086 L168.0294,128.5426 L171.6874,128.5426 L178.8814,117.9566 L182.8234,115.3346 L186.5014,115.3346 L185.6434,122.7146 L189.5634,122.3226 L193.7954,119.0366 L196.5474,119.0366 L194.6254,113.2966 L189.4874,113.6606 L186.2254,111.2506 L184.3254,104.5486 Z M206.3694,119.5346 L203.6974,119.5346 L199.4874,122.4206 L202.1434,122.4206 L206.3694,119.5346 Z M820.3058,89.6516 L824.8078,89.7796 L824.8798,89.8516 L838.9138,104.2336 L834.9418,104.2336 L841.6018,113.6836 L836.9898,113.6836 L831.5598,103.5656 L820.3058,89.6516 Z M273.3298,95.331 L273.3298,95.531 L273.4298,95.429 L273.4298,100.269 L276.7978,101.073 L276.8518,101.161 L276.8978,101.171 L281.1318,107.917 L261.1218,107.917 L261.2198,107.819 L261.0218,107.819 L273.3298,95.331 Z M73.7134,96.2968 L79.2294,100.8008 L79.2294,103.6028 L75.0054,103.6028 L71.1194,98.5208 L73.7134,96.2968 Z M417.2902,73.5548 L422.7262,73.7208 L429.3182,88.8688 L434.6722,89.9988 L434.2642,93.7728 L432.5902,93.7728 L432.0762,96.7208 L423.7802,98.0388 L414.9782,99.6368 L421.4722,93.4788 L418.4582,89.0888 L421.9482,87.1768 L421.8742,82.6128 L417.2902,82.1828 L417.2902,73.5548 Z M409.9316,81.9814 L410.0116,82.0874 L416.0096,82.4934 L416.0096,86.1294 L413.5236,87.0114 L414.0136,93.6534 L407.5496,92.7634 L407.5496,95.7314 L403.6696,95.7574 L403.6696,86.5714 L403.7716,86.4974 L409.5276,82.2774 L409.3516,82.0434 L409.8056,82.0734 L409.9316,81.9814 Z M462.919,78.3428 L465.523,80.9228 L464.155,82.9888 L459.835,83.0288 L460.561,79.3108 L462.919,78.3428 Z M380.6708,0.8932 L411.9868,4.0352 L407.8028,8.2412 L407.7288,8.2572 L397.1728,10.4152 L379.8808,37.9052 L379.7908,37.9332 L370.6108,40.6432 L357.5108,41.4572 L350.9908,46.4312 L333.7148,51.5252 L321.4068,64.5332 L313.1548,64.5332 L306.2128,57.5152 L306.2108,57.4152 L305.8848,45.0252 L316.7108,38.8772 L316.7108,30.0712 L311.0348,20.2772 L288.3708,19.9532 L288.3708,15.0012 L303.3668,10.4352 L321.9788,3.9832 L354.1388,3.9832 L380.6708,0.8932 Z M238.732,25.145 L243.088,25.179 L240.64,31.239 L247.97,25.215 L247.972,25.215 L251.594,25.271 L274.826,34.759 L275.004,41.361 L279.096,42.851 L281.586,47.505 L277.154,50.463 L270.17,47.977 L270.17,57.129 L267.876,58.125 L262.128,55.391 L264.112,59.779 L261.258,61.025 L261.14,60.927 L252.11,53.459 L241.21,53.459 L241.21,49.935 L251.952,49.935 L256.652,46.083 L256.744,46.085 L265.392,46.233 L252.11,34.347 L228.89,35.611 L238.732,25.145 Z M396.6084,45.8946 L401.2904,50.6426 L401.2904,52.1446 L392.0004,56.6666 L391.9244,56.6546 L376.5304,54.4486 L376.5304,49.9366 L380.9564,50.0406 L382.5544,47.8606 L390.2024,48.0206 L396.6084,45.8946 Z M224.6802,49.8998 L232.0642,53.0798 L230.6602,56.5098 L218.1762,55.1878 L224.6802,49.8998 Z M208.0376,35.017 L209.9376,38.041 L203.9876,41.073 L201.4836,37.841 L208.0376,35.017 Z M176.633,26.192 L182.589,28.942 L188.419,26.678 L189.655,30.64 L192.657,26.758 L198.649,26.758 L193.169,33.834 L200.509,37.222 L192.619,39.034 L192.563,39.02 L183.143,36.784 L174.585,40.498 L161.357,35.344 L171.377,32.792 L165.055,30.13 L176.633,26.192 Z M169.4034,22.7932 L174.6914,25.2452 L153.7794,32.3572 L149.8694,27.7692 L169.4034,22.7932 Z M219.536,23.8524 L219.536,23.8544 L217.332,29.7344 L209.512,32.3444 L205.596,28.3784 L219.536,23.8524 Z M229.761,23.9712 L232.163,27.1572 L221.267,30.0532 L220.167,26.1832 L229.761,23.9712 Z M241.0542,16.7352 L241.1962,16.7932 L246.7902,19.1112 L264.4282,19.1112 L257.9102,23.7012 L257.8202,23.6952 L234.9982,21.8972 L241.0542,16.7352 Z M313.5376,0.0018 L300.8896,7.1238 L285.5896,10.1838 L266.5016,19.0898 L264.3496,17.2738 L251.2976,17.2738 L249.0156,15.0038 L261.0296,15.0038 L258.2156,11.3618 L265.2656,12.5078 L263.2156,8.8918 L279.6136,8.5658 L281.4116,6.1738 L266.1296,6.4898 L266.1296,3.5178 L266.3616,3.4998 L313.5376,0.0018 Z M254.4544,5.0942 L258.4184,8.0542 L253.1104,11.4522 L253.0124,11.4342 L243.6184,9.6582 L254.4544,5.0942 Z" id="path-1"></path>
    </defs>
    <g id="Website-CakeDefi.com" stroke="none" stroke-width="1" fill="none" fill-rule="evenodd">
        <g id="Cake-website-HD" transform="translate(-249.000000, -2545.000000)">
            <g id="Team" transform="translate(0.000000, 2244.000000)">
                <g id="Group-11" transform="translate(0.000000, 248.000000)">
                    <g id="Group-63" transform="translate(248.000000, 53.000000)">
                        <g id="Combined-Shape">
                            <use fill="#F8F8F8" xlink:href="#path-1"></use>
                            <use fill-opacity="0.1" fill="#5B10FF" xlink:href="#path-1"></use>
                        </g>
                    </g>
                </g>
            </g>
        </g>
    </g>
</svg>