<svg width="174" height="48" xmlns="http://www.w3.org/2000/svg"><g fill="none" fill-rule="evenodd"><path d="M3.23 27.095C4.73 37.212 13.472 45 24 45a20.91 20.91 0 0 0 13.975-5.343l.325-.296 2.122 2.122C36.126 45.52 30.348 48 24 48 12.059 48 2.13 39.232.304 27.797L.25 27.43l2.98-.336zm10.605 1.256c.087.2.177.4.273.595l.15.29-2.542 1.597-1.232.774-.04.025-.476.299c2.774 4.887 8.022 8.194 14.032 8.194 5.346 0 10.09-2.617 13.025-6.636l.207-.29 2.244 1.41 1.888 1.187 2.542 1.598a24.134 24.134 0 0 1-1.987 2.551l-.436.477-3.454-3.453c-3.495 3.78-8.487 6.156-14.03 6.156-7.937 0-14.756-4.864-17.645-11.766l-.14-.341 2.834-.991 1.948-.682 2.84-.994zm26.75-13.855A19.002 19.002 0 0 1 43.126 24a19 19 0 0 1-2.553 9.528l-1.224-.77-3.07-1.93c-2.406 4.309-7.003 7.234-12.278 7.234-4.739 0-8.93-2.361-11.479-5.964l2.538-1.594c2.013 2.76 5.27 4.558 8.941 4.558 4.555 0 8.475-2.767 10.169-6.71l2.836.993 1.945.681A16.009 16.009 0 0 0 40.125 24c0-2.866-.755-5.558-2.072-7.893zM44.7 11.88C46.794 15.44 48 19.58 48 24c0 4.243-1.112 8.23-3.052 11.692l-.247.43-2.54-1.597A20.865 20.865 0 0 0 45 24c0-3.668-.948-7.116-2.609-10.119l-.23-.406 2.539-1.596zM24 4.875c5.396 0 10.27 2.253 13.75 5.86l.28.296 2.45-2.451 1-1a24.02 24.02 0 0 1 2.047 2.5l.37.533-1.196.75-2.927 1.84.017.022-2.534 1.611C34.344 10.634 29.49 7.875 24 7.875 15.109 7.875 7.875 15.109 7.875 24c0 1.424.188 2.805.537 4.121l.139.49-2.837.993A19.057 19.057 0 0 1 4.875 24c0-10.546 8.58-19.125 19.125-19.125zm0 5.063c7.754 0 14.063 6.308 14.063 14.062 0 1.212-.158 2.388-.448 3.51l-.115.42-2.836-.993c.258-.936.398-1.92.398-2.937 0-6.1-4.962-11.063-11.062-11.063S12.937 17.9 12.937 24c0 .872.105 1.719.297 2.532l.104.404-2.837.993A13.986 13.986 0 0 1 9.938 24c0-7.754 6.308-14.063 14.062-14.063zM24 0c6.189 0 11.834 2.359 16.095 6.22l.325.3-2.12 2.12C34.547 5.145 29.52 3 24 3 12.42 3 3 12.42 3 24c0 .36.012.717.032 1.073l.035.53-2.982.337A24.224 24.224 0 0 1 0 24C0 10.766 10.766 0 24 0z" fill="#00ADE7"/><path d="M88.165 3.074c1.913 0 3.252.574 4.323 1.606 1.262 1.224 1.912 3.175 1.95 5.394h-3.25c-.04-1.148-.23-2.295-.88-3.099-.421-.535-1.11-.956-2.143-.956-1.071 0-1.798.42-2.257 1.033-.936 1.273-1.102 3.388-1.109 9.538v.407c0 6.465.153 8.645 1.11 9.946.458.612 1.185 1.033 2.256 1.033 1.033 0 1.722-.421 2.142-.956.612-.804.842-1.99.88-3.137h3.251c-.038 2.295-.726 4.322-2.065 5.546-1.071.957-2.41 1.492-4.208 1.492-2.142 0-3.634-.803-4.667-1.989-1.797-2.066-1.989-4.4-1.989-11.935s.192-9.869 1.99-11.934c1.032-1.186 2.524-1.99 4.666-1.99zm20.272 0c1.912 0 3.251.574 4.322 1.606 1.263 1.224 1.913 3.175 1.951 5.394h-3.251c-.039-1.148-.23-2.295-.88-3.099-.42-.535-1.11-.956-2.142-.956-1.071 0-1.798.42-2.257 1.033-.936 1.273-1.102 3.388-1.109 9.538v.407c0 6.465.152 8.645 1.109 9.946.459.612 1.186 1.033 2.257 1.033 1.033 0 1.721-.421 2.142-.956.612-.804.841-1.99.88-3.137h3.251c-.038 2.295-.727 4.322-2.066 5.546-1.07.957-2.41 1.492-4.207 1.492-2.142 0-3.634-.803-4.667-1.989-1.764-2.027-1.981-4.311-1.989-11.514v-.42c0-7.536.191-9.87 1.989-11.935 1.033-1.186 2.525-1.99 4.667-1.99zm38.096.076c1.99 0 3.48.574 4.514 1.569 1.377 1.338 1.797 3.098 1.797 5.584h-3.29c0-1.453-.152-2.448-.84-3.29-.46-.573-1.187-.917-2.22-.917-.956 0-1.644.344-2.103.841-.65.727-.957 1.836-.957 3.252 0 2.677.421 3.48 2.601 4.398l3.06 1.263c3.1 1.262 3.826 3.175 3.826 7.459 0 2.83-.383 4.628-1.683 5.929-1.033.994-2.64 1.645-4.82 1.645-2.104 0-3.71-.574-4.782-1.645-1.262-1.262-1.683-2.83-1.683-5.738h3.29c0 1.798.191 2.793.918 3.558.46.497 1.225.841 2.257.841 1.11 0 1.836-.344 2.333-.88.727-.803.88-1.836.88-3.633 0-3.137-.46-4.093-2.678-5.011l-3.098-1.263c-2.792-1.148-3.71-2.678-3.71-6.809 0-2.371.688-4.322 2.065-5.584 1.071-.995 2.525-1.569 4.323-1.569zm19.966 0c1.99 0 3.481.574 4.514 1.569 1.377 1.338 1.798 3.098 1.798 5.584h-3.29c0-1.453-.153-2.448-.841-3.29-.46-.573-1.186-.917-2.219-.917-.956 0-1.645.344-2.104.841-.65.727-.956 1.836-.956 3.252 0 2.677.42 3.48 2.601 4.398l3.06 1.263c3.099 1.262 3.825 3.175 3.825 7.459 0 2.83-.382 4.628-1.683 5.929-1.032.994-2.639 1.645-4.82 1.645-2.103 0-3.71-.574-4.781-1.645-1.262-1.262-1.683-2.83-1.683-5.738h3.29c0 1.798.19 2.793.918 3.558.46.497 1.224.841 2.256.841 1.11 0 1.837-.344 2.334-.88.727-.803.88-1.836.88-3.633 0-3.137-.46-4.093-2.678-5.011l-3.098-1.263c-2.793-1.148-3.71-2.678-3.71-6.809 0-2.371.688-4.322 2.065-5.584 1.071-.995 2.524-1.569 4.322-1.569zm-97.382.23l6.312 27.235h-3.481l-1.3-6.426h-6.312l-1.301 6.426h-3.443l6.35-27.235h3.175zm63.915 0v2.945h-7.23v9.142h6.235v2.946h-6.235v9.257h7.23v2.945h-10.52V3.38h10.52zM67.51 8.697l-2.563 12.547h5.087L67.511 8.697z" fill="#FFF"/><path d="M82.274 35.872v6.005c0 1.376.867 2.282 2.193 2.282s2.205-.906 2.205-2.282v-6.005h.97v6.081c0 1.81-1.34 3.073-3.175 3.073-1.836 0-3.162-1.263-3.162-3.073v-6.081h.969zm10.238-.077c1.16 0 1.925.306 2.703.995l-.625.625c-.548-.523-1.173-.79-2.116-.79-1.224 0-1.925.675-1.925 1.695 0 .446.127.815.408 1.058.28.242.713.395 1.185.471l1.058.166c.842.128 1.237.28 1.645.65.484.421.765 1.033.765 1.785 0 1.594-1.237 2.576-3.136 2.576-1.352 0-2.257-.345-3.098-1.199l.65-.65c.752.752 1.453.982 2.473.982 1.339 0 2.155-.612 2.155-1.683 0-.485-.14-.867-.447-1.135-.28-.255-.535-.344-1.185-.446l-1.058-.153c-.714-.115-1.25-.332-1.657-.689-.46-.408-.702-.969-.702-1.708 0-1.542 1.11-2.55 2.907-2.55zm-31.62.077v9.077h-.969v-9.077h.97zm62.666 0l2.958 6.438 2.881-6.438h.969v9.077h-.969v-6.897l-2.486 5.47h-.829l-2.524-5.47v6.897h-.968v-9.077h.968zm47.136 0c1.581 0 2.69.956 2.69 2.524 0 1.326-.803 2.193-1.976 2.435l2.155 4.118h-1.135l-2.065-4.029h-2.18v4.03h-.969v-9.078h3.48zm-5.495 0v.867h-4.666v3.2h3.978v.867h-3.978v3.276h4.666v.867h-5.635v-9.077h5.635zm-100.762 0l4.819 7.254v-7.254h.968v9.077h-.917l-4.82-7.28v7.28h-.968v-9.077h.918zm11.526 0c1.02 0 1.771.293 2.383.956.756.816.8 2.038.804 3.338v.244c0 1.39 0 2.716-.804 3.583-.612.663-1.364.956-2.383.956h-3.111v-9.077h3.11zm26.902 0v.867h-2.626v8.21h-.97v-8.21h-2.626v-.867h6.222zm5.176 0c1.581 0 2.69.956 2.69 2.524 0 1.326-.803 2.193-1.976 2.435l2.155 4.118h-1.135l-2.065-4.029h-2.18v4.03h-.97v-9.078h3.481zm46.423 0c1.58 0 2.677.905 2.677 2.422 0 .957-.574 1.709-1.339 1.989.867.319 1.479 1.07 1.479 2.155 0 1.644-1.097 2.511-2.703 2.511h-3.531v-9.077h3.417zm-41.768 0l2.142 4.347 2.116-4.347h1.045l-2.677 5.329v3.748h-.969v-3.748l-2.703-5.329h1.046zm28.916 0l2.958 6.438 2.881-6.438h.969v9.077h-.969v-6.897l-2.486 5.47h-.829l-2.524-5.47v6.897h-.969v-9.077h.969zm-2.984 0v.867h-4.666v3.2h3.978v.867h-3.978v3.276h4.666v.867h-5.634v-9.077h5.634zm15.861 4.883h-2.473v3.327h2.473c1.122 0 1.823-.65 1.823-1.67s-.701-1.657-1.823-1.657zm-78.692-4.016H73.82v7.343h1.976c.688 0 1.325-.153 1.784-.663.548-.583.596-1.599.6-2.758v-.25c0-1.262-.013-2.384-.6-3.01-.459-.51-1.096-.662-1.784-.662zm32.155 0h-2.422v3.327h2.422c1.058 0 1.81-.548 1.81-1.657s-.752-1.67-1.81-1.67zm62.653 0h-2.422v3.327h2.422c1.058 0 1.81-.548 1.81-1.657s-.752-1.67-1.81-1.67zm-16.218 0h-2.371v3.149h2.371c1.007 0 1.785-.497 1.785-1.58 0-1.085-.778-1.569-1.785-1.569z" fill="#00ADE7"/></g></svg>