<svg height="469" viewBox="0 0 942 469" width="942" xmlns="http://www.w3.org/2000/svg" xmlns:xlink="http://www.w3.org/1999/xlink"><defs><path id="a" d="m239.9744 460.5566.156.084 15.624 8.152-14.76-.546-4.666-4.284zm-19.917-429.43 1.118 6.942 4.744.492-1.056 5.318 9.554-6.324.09.012 7.764.86-8.154 8.484-18.678 2.056 2.564 3.792-12.662 2.31-21.398 15.838 21.55 11.694v.002l-.002.076v.072l-.118 11.838 5.736-.018 25.258-36.762h9.564l7.04 5.988-.096 8.13 14.23-5.6.022.338 1.308 17.626 10.918 1.89-.086 3.996-.132.068-15.066 7.992-19.846.858-12.232 5.868v2.836l12.78-5.8 2.29 2.188-4.136 6.414 3.956 3.566 10.15.482-19.834 6.968-.744-3.262 5.3-2.528-8.22 1.418-.046.138-3.782.654-54.18 46.324-.142 21.02-5.788-.154-.028-.212-2.19-16.558-33.22-.106-14.284 17.934-.006-.014-5.73 7.192 7.182 15.474 14.74-.006 5.464-8.964 7.27.128-.252 6.396.366-.274-.382.726-.016.348-.28.21-5.032 9.498v.004l-.37.692-.004-.018-.364.656-.184.334 15.588-.156.328-.274.006.272.454-.004-.444.37.434 19.084-.018-.002.052 2.276 2.182 1.21 3.218 1.776 2.662-2.22 8.032-.706 1.02 3.72 3.276-.216 7.186-9.706 3.294.018.276.002h.224l16.772.162.064.044 7.246 5.162 13.118 1.282 3.464 3.314-.004.016 10.042 9.55 15.094 1.304 7.2 15.74-4.306 6.352 5.904-4.544 5.294 2.294-2.258 6.084 6.944-4.068 7.724 3.34v.002l-.414 4.322 15.906.968.056.036 16.576 10.796v8.178l-.054.068-10.018 13.108-4.348 32.312-23.326 10.322-2.268 14.452-9.48 16.528.014.01-4.94 8.562-11.194-4.11 9.586 13.35-21.926 9.492 1.946 40.38-3.53-.36.002.004-5.266-.544-14.438-18.67-.002-.08-.376-13.608-8.258-6.676-.006-.114-3.134-76.376-18.63-12.508-21.636-36.846.004-.076.25-4.01.028.014.724-11.542.048-.062 5.946-7.486-.006-.006 4.32-5.456 1.38-9.058-1.318-4.388-.008.014-1.54-5.092-4.624-.45-2.116 3.16-.182-.066-10.784-3.844-.048-.062-6.122-8.278h.02l-4.094-5.52-.602-.81-6.342-2.862-.484-.218-.004.01-.454-.214.006-.012-7.424-3.738-.06.106-.264-.27-.234-.118.044-.076-5.048-5.15-6.044 1.604-.08-.032-24.554-10.242-.04-.092-15.02-35.332-.176-8.594h-4.176v9.196l7.98 17.014-4.508 3.484-10.206-19.356-1.38-14.59-9.406-9.406v-20.924l.068-.072 25.396-26.788v-3.35l-6.95-6.306.03-.14 3.858-17.65-9.844-9.846-33.06 1.154-28.794 13.748-.066-.004-6.226-.486 14.926-9.808-7.488.126 9.476-12.838.07-.026 17.458-6.548-13.654.492 3.672-5.128.132.002 17.138.212v-6.788l.156-.064 15.552-6.246 38.272-.216.048.018 7.2 2.968 1.402-.598-.712.614 45.498-.952.048.02 24.078 9.622 9.936-4.66.08.018 18.76 3.526 10.498-5.008-2.102-4.358zm701.9536 390.6586v4.54l-.114.074-23.526 15.484-.136-.076-7.402-4.23.414-.208zm16.3984-21.57v6.692l4.304 5.74-15.414 10.98 2.282-7.214 5.93-5.926v-9.062zm-75.2986-82.9668 4.864 1.55.03.142 4.99 23.95 15.624 22.032-.01.092-1.608 16.688-.06.062-28.48 29.482-.114-.006-24.798-1.412-2.978-16.484-8.258 3.538-.116-.104-7.906-6.916-48.626 10.606-.096-.118-3.098-3.716.06-.14 3.98-9.554v-28.508l.144-.068 25.554-11.978 19.088-21.096.166.072 10.176 4.502 4.564-9.52.152-.004 17.834-.41-4.512 8.204 14.07 12.114 9.364-9.36zm-184.9812-300.5902 2.58 9.23h41.774l7.72 5.798h18.34l6.458-5.814.118.02 22.98 3.756 3.688 5.01 65.48 1.866 42.438 8.404.058.058 7.002 7.514-8.812-.174-12.052-2.484-4.794 3.734 13.288 3.616-.386 3.126-.154.048-26.56 8.41 11.154 10.736v19.156l-20.686-19.594.006-.116.608-10.26 4.826-3.288-4.874-4.664-2.602-.268-.042 4.52-12.048-4.558-3.056 9.552h-.184l-28.122-.214-2.288 16.468 13.568.21.072.084 14.242 16.176v13.914l-.042.064-5.02 7.488-9.056 1.592.858 9.872-4.604.6 12.122 9.92-.02.14-1.09 7.396-6.612.456-5.184-11.22-4.894-1.368-.05-.096-3.588-6.808-6.62 4.554-4.704-8.978-6.484 5.668 5.158 8.47 2.606-1.684h9.242l-7.736 8.436 14.528 23.912-.052.12-8.202 18.362-.102.036-25.28 9.034-.158-4.028-4.016 2.282-.004-.004-4.328 2.446-.62 7.218 12.888 13.606.004.096.424 12.28-.116.078-12.738 8.408-.164-7.09-4.184.578-3.954-3.936-7.362-7.284-1.538 15.07 6.742 9.932.088.132.006.01.216.318 10.56 15.606-1.008 3.938-.294-.252-11.424-9.738-.022-.068-3.42-11.09-7.118-6.034.174-2.888-.002.004.692-11.2-2.596-9.622-4.482-5.056-2.46 3.08-3.846-1.15-.03-.15-1.902-9.952-4.608-3.854-.212-.18-.238-.198-10.882-9.128-2.226 2.156-.384.372-.018.018-23.184 22.392-1.602 18.832-.106.068-10.586 6.502-.102-.292-16.202-46.596-1.62-.016-.904 4.224-5.392-.64-.062-.084-2.954-3.832 2.848-2.924-6.062-1.918-.698-.824-4.572-5.204h-17.34l-.002.002-5.816-.01-20.242-6.038-.044-.048-10.9-11.368-4.752-.456-.218-.37-.102.002-2.858.018 3.47 5.642.052.088.254.412h-.002l6.838 11.172.554.364 1.434-4.608 3.532 4.98-1.716 1.776 1.79 1.18 6.532 1.284 5.368-6.04 3.766 3.34 9.06 8.064-.148.186-16.23 20.108.144.098-.352.16-.106.132-.076-.05-32.692 14.74-.082-.272-4.94-16.098-24.746-42.994-1.976 4.628-6.172-5.032 12.196 20.95-.006.006.022.042 26.132 44.908 24.186-3.59 1.492 7.432-.08.094-40.084 46.648-.388.452.63 7.014 1.528 17.042 1.788 16.788-.106.086-17.782 14.582.558 16.032-7.64 5.336-.196 1.452h.012l-.934 6.462-.048.056-19.574 22.646h-25.63l-.058-.164-7.842-21.474h.026l-13.066-36.83h-.054l-.016-.198-.108-.302h.082l-.504-6.252.044-.068 5.962-9.822v-23.308l-.13-.174-1.698-2.258h-.002l-3.33-4.438v.002l-.428-.572-.072-.096-7.262-9.706.178-8.49h-.002l.14-5.298h-.02l.16-7.282h-12.184l-1.286-5.726-9.12-1.328-.188.052-5.696 1.632-11.408 3.296-.152.044-16.86 4.868v.448l-.328-.352-.172.048v-.234l-11.722-12.648.01-.01-.788-.85-4.416-4.748-6.116-6.604-4.438-4.79.006-.058h-.006l.73-20.288.002-.048.448-12.922h.014l.16-4.46 14.802-19.28h.002l17.31-22.524.106-.012 18.05-1.882 15.794-6.04h.05l11.524.334-.002-.008 10.69.314-.01.252-.412 11.394 2.986.716.012-.012 9.366 2.25 4.256 5.16 10.488 2.094 4.872-7.292.156.02 11.528 1.564v-.004l.272.036 27.866 3.788 2.182-8.062 1.108-5.252.062-.288.044-.206 1.06-4.94-25.032-1.384-.068-.13-5.662-11.376h.002l6.95.056 2.954-3.538.112-.004 34.338-1.122v-5.564l-12.84-4.498-.662-6.016 3.472-.948-1.252-2.986-11.364 2.416 4.602 5.876-5.342.418-3.908-2.21 2.376-2.466h-10.79l-.828 2.542-.088-.036-1.602 4.958h-.002l-1.814 5.58 2.604 5.604h-11.552l-5.89 2.898 3.054 6.668-3.042 4.81-4.842-6.086 2.986-1.266-4.866-1.36-2.776-3.208-.006.002-.606-.71-1.84-3.468-2.604-4.906-.05-.014-1.552-.384.002.008-1.984-.494-.052-.06-6.7-7.746-2.502.15.02-.01-4.6.276 19.44 16.824-3.976.798-.91 4.83-3.366 1.968-.856-7.086-15.866-15.832h-5.242l-.42 6.012-14.512-.104-2.8 3.62.004.004-.168.216-14.002 17.978-.134-.01-3.056-.23-10.806-.806v.002l-2.172-.164-3.32-5.868.448-17.434 22.736-.164-.85-11.37-6.652-3.594v-2.762h5.82l14.918-8.94 10.666-6.382v.012l5.652-3.384-1.898-4.522 2.772-6.246 4.198.058-1.402 7.882.698 2.762 11.418.13 1.058.012 9.34-2.278 1.484 1.36 6.114-.202-.02-3.304.08.028-.004-.704-.034-7.446 6.414 2.934.536-2.44-.358-.266-.12-.092-.4-.3h.002l-2.446-1.842.89-2.264 9.27-.21 1.598-1.498-.002-.018 1.162-1.084-6.886-.016-3.742-.01-7.552-3.812 6.22-14.092h-4.168l-12.836 14.036 5.812 7.218-.178.158-12.59 11.148-7.544-8.688-.95-1.088-11.876 1.94-.076-.18-4.02-9.43.168-.118 39.358-27.24.07-.004.172-.008 11.052-.57v-.004l6.248-.316.004.006 5.592-.284 27.688 8.828-7.488 3.738-.064-.002-13.688-.516 4.594 8.752 37.018-15.178 39.368-1.064-4.958-11.288 10.866.86.048.164 5.698 18.616 5.99-6.192-7.524-9.318 34.478-15.396zm-89.0296 303.334-.102.324-13.916 44.642-8.49-.376-.062-.144-3.438-8.128.032-.092 2.74-7.74 1.62-11.634.056-.058 16.174-16.794zm283.7502-39.5978.144.076 9.036 4.708v.01l19.892 10.408-.542 5.952 11.666 11.666-9.906-2.024-.054-.05-9.712-9.476-7.554 6.942-15.582-5.434 4.538-2.77-2.196-6.244-12.648-5.276-5.422.19 1.104-5.442 8.92 3.514zm-44.3516 24.2812.108.146h8.424v2.73l-6.264.758-3.404 3.062-4.368-.554 5.164-5.762-.17-.234h.38zm-14.4356 3.5672 1.45 3.118h-3.974l-1.792-2.188zm4.9042-4.382.06.032 3.05 1.784-2.35 1.904h-5.032l-1.11-3.72zm-47.6134-7.1348 8.106 3.086 7.272-1.604.078.04 11.708 5.69.584 2.722-.362-.064-32.772-5.55zm146.5358-5.9108v4.592l-.126.072-7.068 3.97-4.532-2.706zm-185.016-35.7238 9.706 3.746 25.852 26.812v6.818l-5.036 4.184-30.522-41.558h.002zm84.8368 14.4858 7.764 1.884 2.314-1.522 4.2.092-4.504 5.32-2.896.254-5.454-1.884-2.752 3.028 1.36 1.886 8.16-.346-5.156 4.332 2.444 5.45v3.832l-4.882-1.696-.044-.108-1.694-4.458-1.824 2.028 1.138 6.614-4.176 1.288-.056-.272-1.88-9.608 2.994-3.98-.364-7.346.088-.08zm97.7496 15.3906.068.04 8.686 5.174-3.876 1.318-.104-.074-8.668-6.21zm-68.0098-.347v2.636l-.224.022-8.748.9 1.014-3.558zm-39.3016-32.2112v24.828l-.052.068-7.816 9.974h-15.904l-.072-.124-4.954-8.718-.298-8.594-.184-.112.178-.082-.002-.028.378-.148h.002l15.694-7.254 6.908-9.298zm51.532 25.0192 1.254 6.668-11.522-5.212zm-322.251-4.0986h-5.344l-1.994 3.482h.004l-.256.438-.036.062-1.248 2.138h5.4l3.208-5.648zm304.2108-8.3314 1.68 2.05-2.298 2.874.896 6.358-4.438-1.08.032-.228 1.072-6.962zm-10.3192-25.3416 3.496 10.91-3.704.946 1.574 2.868-5.278 1.584v-4.666l-6.968-4.978h8.328zm-19.328-4.036.14 4.464-5.766 4.792-.116-.02-3.628-.718zm10.2142 3.5182 1.944 2.928-1.972 2.376-2.228-2.718zm3.9238-3.15 2.028 3.54-1.774 2.354-2.9-4.376zm-7.5288-2.0878 4.01.49-2.944 4.448-2.758-1.87zm10.9428-2.6564 3.724 5.996h-4.112l-3.524-4.546zm-15.7912-2.8486 3.794 3.728-1.326 2.458-3.01-2.944zm-2.7956-18.0614 5.064.108.066.144 2.606 5.782-.044.102-2.52 5.782 2.42 3.02 7.306.762-1.264 3.79-8.062-1.018-.064-.076-6.686-8.064zm-630.1542-2.0656 2.226 2.248v2.454h-6.302l-2.238-1.916v-2.786zm597.6048-3.1954v3.3l-3.304 4.128-2.356-2.846v-3.332zm-563.1848 3.977-1.524 2.52h-3.924l1.524-2.52zm-18.2976-3.8508.264.03h.236v.026l9.93 1.1-1.588 2.334h-5.25l-3.592 2.668v-1.568h-7.64v-1.76h3.306l-1.98-2.8h6.314zm-23.8266-12.5492.066.046 17.168 12.374h-15.176l3.222-3.582-7.676-5.118h-10.444l3.908-3.72zm636.0714-6.496 2.936 3.07-2.8 7.904-4.738-4.428zm22.8294-28.6422 1.674 2.484-1.876 5.934-5.024-7.758zm8.1388-1.6576-2.672 4.852-3.524-3.996zm5.6048-24.612 4.42 1.282 4.026 7.08.466 11.546-8.702 2.238-.318 3.904-3.362 1.428-1.014-5.064-13.088 1.932 1.106-3.83.138-.034 10.76-2.77 7.868-7.134zm-313.1682 18.0458-2.424 4.696-6.118-1.532zm-64.8828-1.655 5.358.142-.024 4.852-5.38-1.384zm110.6182-38.016-9.862 3.984v10.23l2.836 4.972.06.014.052.094 4.55 8.016h-.002l5.222 9.208 9.552.006.118-2.866h-.002l.368-8.81-10.074-8.342.012-.004-4.556-3.786.23-5.536.134-.064 6.912-3.354zm-104.881 31.0868v5.212l-5.23-.836-3.01-2.06v-2.316zm-20.8008-10.982 4.2 1.22v7.31h-4.2zm-13.9796 3.7654v4.58h-5.28zm402.1296-16.6646 13.68 5.734-2.714 4.638-5.9.078-1.9 2.578-2.892-1.714-.004-.138zm-383.0736 7.5092-.94 4.556-2.276-.858v-3.698zm-273.3808-19.7844-14.982 3.182-1.63 3.524h3.948l3.832-1.86 3.06 1.862 6.456.22.668 2.236-9.78 2.096-7.868 12.734h3.658l7.194-10.586 3.942-2.622h3.678l-.858 7.38 3.92-.392 4.232-3.286h2.752l-1.922-5.74-5.138.364-3.262-2.41zm22.044 14.986h-2.672l-4.21 2.886h2.656zm613.9364-29.883 4.502.128.072.072 14.034 14.382h-3.972l6.66 9.45h-4.612l-5.43-10.118zm-546.976 5.6794v.2l.1-.102v4.84l3.368.804.054.088.046.01 4.234 6.746h-20.01l.098-.098h-.198zm-199.6164.9658 5.516 4.504v2.802h-4.224l-3.886-5.082zm343.5768-22.742 5.436.166 6.592 15.148 5.354 1.13-.408 3.774h-1.674l-.514 2.948-8.296 1.318-8.802 1.598 6.494-6.158-3.014-4.39 3.49-1.912-.074-4.564-4.584-.43zm-7.3586 8.4266.08.106 5.998.406v3.636l-2.486.882.49 6.642-6.464-.89v2.968l-3.88.026v-9.186l.102-.074 5.756-4.22-.176-.234.454.03zm52.9874-3.6386 2.604 2.58-1.368 2.066-4.32.04.726-3.718zm-82.2482-77.4496 31.316 3.142-4.184 4.206-.074.016-10.556 2.158-17.292 27.49-.09.028-9.18 2.71-13.1.814-6.52 4.974-17.276 5.094-12.308 13.008h-8.252l-6.942-7.018-.002-.1-.326-12.39 10.826-6.148v-8.806l-5.676-9.794-22.664-.324v-4.952l14.996-4.566 18.612-6.452h32.16zm-141.9388 24.2518 4.356.034-2.448 6.06 7.33-6.024h.002l3.622.056 23.232 9.488.178 6.602 4.092 1.49 2.49 4.654-4.432 2.958-6.984-2.486v9.152l-2.294.996-5.748-2.734 1.984 4.388-2.854 1.246-.118-.098-9.03-7.468h-10.9v-3.524h10.742l4.7-3.852.092.002 8.648.148-13.282-11.886-23.22 1.264zm157.8764 20.7496 4.682 4.748v1.502l-9.29 4.522-.076-.012-15.394-2.206v-4.512l4.426.104 1.598-2.18 7.648.16zm-171.9282 4.0052 7.384 3.18-1.404 3.43-12.484-1.322zm-16.6426-14.8828 1.9 3.024-5.95 3.032-2.504-3.232zm-31.4046-8.825 5.956 2.75 5.83-2.264 1.236 3.962 3.002-3.882h5.992l-5.48 7.076 7.34 3.388-7.89 1.812-.056-.014-9.42-2.236-8.558 3.714-13.228-5.154 10.02-2.552-6.322-2.662zm-7.2296-3.3988 5.288 2.452-20.912 7.112-3.91-4.588zm50.1326 1.0592v.002l-2.204 5.88-7.82 2.61-3.916-3.966zm10.225.1188 2.402 3.186-10.896 2.896-1.1-3.87zm11.2932-7.236.142.058 5.594 2.318h17.638l-6.518 4.59-.09-.006-22.822-1.798zm72.4834-16.7334-12.648 7.122-15.3 3.06-19.088 8.906-2.152-1.816h-13.052l-2.282-2.27h12.014l-2.814-3.642 7.05 1.146-2.05-3.616 16.398-.326 1.798-2.392-15.282.316v-2.972l.232-.018zm-59.0832 5.0924 3.964 2.96-5.308 3.398-.098-.018-9.394-1.776z"/></defs><g fill="none" fill-rule="evenodd" transform="translate(-1)"><use fill="#f8f8f8" xlink:href="#a"/><use fill="#5b10ff" fill-opacity=".1" xlink:href="#a"/></g></svg>