<svg width="84" height="24" xmlns="http://www.w3.org/2000/svg"><path d="M9.74 0c2.238 0 4.003.666 5.244 1.981 1.229 1.301 1.85 3.075 1.85 5.273 0 2.2-.622 3.973-1.85 5.274-1.24 1.315-3.006 1.981-5.245 1.981a.884.884 0 1 1 0-1.77c1.758 0 3.053-.466 3.96-1.426.919-.975 1.367-2.302 1.367-4.059 0-1.756-.448-3.083-1.368-4.058-.907-.96-2.201-1.427-3.959-1.427H1.77v21.347a.884.884 0 1 1-1.769 0V.884C0 .397.396 0 .885 0H9.74zm60.728 0c.49 0 .885.397.885.884v21.347h11.25a.885.885 0 1 1 0 1.769H70.468a.885.885 0 0 1-.885-.884V.884c0-.487.397-.884.885-.884zM53.35 0c3.069 0 5.522 1.063 7.29 3.158 1.73 2.054 2.609 5.03 2.609 8.842 0 1.887-.22 3.58-.653 5.032-.443 1.482-1.1 2.757-1.951 3.787a8.392 8.392 0 0 1-3.175 2.386c-1.223.527-2.61.794-4.12.794-2.031 0-3.77-.456-5.169-1.357-1.402-.903-2.51-2.246-3.295-3.99a.847.847 0 0 1 .77-1.193.85.85 0 0 1 .772.498c.658 1.463 1.53 2.531 2.667 3.264 1.123.722 2.554 1.088 4.255 1.088 1.278 0 2.44-.22 3.45-.658a6.593 6.593 0 0 0 2.541-1.908c.707-.856 1.257-1.93 1.635-3.195.387-1.293.582-2.823.582-4.548 0-3.404-.744-6.012-2.21-7.752-1.453-1.72-3.414-2.557-5.998-2.557-.517 0-3.686-.143-5.816 2.52-2.132 2.664-5.228 9.658-5.228 9.658C39.983 18.155 38.618 24 31.263 24c-3.069 0-5.522-1.062-7.29-3.157-1.73-2.054-2.609-5.03-2.609-8.842 0-1.887.22-3.58.653-5.032.443-1.482 1.1-2.757 1.951-3.787A8.396 8.396 0 0 1 27.143.795C28.366.268 29.753 0 31.263 0c2.031 0 3.771.458 5.17 1.358 1.401.903 2.51 2.246 3.294 3.991a.847.847 0 0 1-.77 1.192.85.85 0 0 1-.772-.498c-.657-1.463-1.53-2.531-2.667-3.264-1.123-.722-2.555-1.088-4.255-1.088-1.279 0-2.44.22-3.45.658a6.593 6.593 0 0 0-2.541 1.908c-.707.856-1.257 1.93-1.635 3.195-.386 1.293-.582 2.823-.582 4.548 0 3.404.744 6.012 2.21 7.752 1.453 1.72 3.415 2.557 5.998 2.557.518 0 3.686.143 5.817-2.52 2.13-2.664 5.01-9.18 5.01-9.18C44.416 6.324 45.995 0 53.35 0z" fill="#5B10FF" fill-rule="evenodd"/></svg>