<svg width="20" height="17" xmlns="http://www.w3.org/2000/svg"><g transform="translate(-2 -4)" fill="none" fill-rule="evenodd"><path d="M0 0H24V24H0z"/><path d="M12.65 17.197l.05.035c1.45 1.077 2.904 2.153 4.352 3.233.206.152.428.262.673.327.455.123.78-.028.995-.447.021-.043.038-.084.056-.127.1-.236.143-.488.195-.736.336-1.575.67-3.15 1.004-4.726l1.005-4.724c.316-1.488.632-2.974.95-4.461.059-.278.099-.554.044-.836-.11-.546-.573-.841-1.11-.7-.28.074-.546.195-.817.3-2.883 1.11-5.766 2.222-8.647 3.335-2.487.959-4.974 1.916-7.458 2.878-.459.176-.925.333-1.367.55-.2.096-.379.215-.494.415-.147.26-.093.483.158.647.152.1.328.135.499.187a2868.788 2868.788 0 0 1 4.536 1.387l.054-.032 9.689-6.098.879-.559c.144-.09.296-.15.47-.118.153.025.194.124.097.247-.05.065-.112.121-.173.177-2.574 2.353-5.15 4.705-7.725 7.06l-.713.65-.367 4.707c.035 0 .062.002.086 0a.457.457 0 0 0 .078-.01c.329-.07.6-.249.837-.473.518-.49 1.026-.988 1.538-1.482.207-.2.415-.4.626-.606" fill="#5B10FF"/></g></svg>