<svg height="716" viewBox="0 0 1000 716" width="1000" xmlns="http://www.w3.org/2000/svg" xmlns:xlink="http://www.w3.org/1999/xlink"><defs><path id="a" d="m0 0h1000v715.705765h-1000z"/><linearGradient id="b" x1="50%" x2="50%" y1="0%" y2="100%"><stop offset="0" stop-color="#9425ff"/><stop offset="1" stop-color="#5b10ff"/></linearGradient><linearGradient id="c" x1="50%" x2="50%" y1="0%" y2="100%"><stop offset="0" stop-color="#fff"/><stop offset="1" stop-color="#5b10ff"/></linearGradient><radialGradient id="d" cx="38.00727%" cy="36.585287%" gradientTransform="matrix(-.02247661 .99950675 -.78040646 -.03426073 .67413 -.001498)" r="75.33873%"><stop offset="0" stop-color="#08091f" stop-opacity="0"/><stop offset=".725851973" stop-color="#08091f" stop-opacity=".2"/><stop offset="1" stop-color="#08091f"/></radialGradient><mask id="e" fill="#fff"><use fill="#fff" fill-rule="evenodd" xlink:href="#a"/></mask></defs><g fill="none" fill-rule="evenodd"><use fill="#08091f" xlink:href="#a"/><g mask="url(#e)" opacity=".726749" stroke-linecap="round" stroke-linejoin="round"><g transform="translate(67.717565 71.692988)"><path d="m423.581383 207.183863v94.565193" stroke="#691bbc" stroke-width="2"/><g stroke-width="1.5"><path d="m6.47994693 330.879889 58.26613357 243.389104 57.3324105-14.144348" stroke="#5b10ff"/><path d="m104.208184 470.77088 43.188063 228.59249s84.883955 75.202717 210.717716 90.839235c125.838229 15.636518 234.54777-19.35801 291.138562-54.357004 56.590792-34.994528 108.70954-96.794514 120.624567-137.748789l68.09927-236.102486" stroke="#5b10ff"/><path d="m763.175727 467.978645-62.152925 227.605156" stroke="#5b10ff"/><path d="m688.716863 557.517814-39.462104 178.327787" stroke="#5b10ff"/><path d="m286.261929 551.745706 19.349074 228.16807" stroke="#5b10ff"/><path d="m793.51772 120.439163-9.681238 50.447874" stroke="#5b10ff"/><path d="m682.909907 583.755892c16.382603-7.072174 45.649697-28.284228 59.423235-39.453169l-229.414524-155.346572" stroke="url(#b)"/><path d="m78.4150777 192.855898c94.3105413-81.725378 208.5509413-117.6446933 356.4411283-117.4622195" stroke="url(#c)"/><path d="m423.581383 301.746822-133.071235 300.073715s104.465343 26.80546 207.961221 12.656645c103.500346-14.148815 157.85735-39.462104 190.247281-56.961601z" stroke="url(#b)"/><path d="m423.581383 254.651864 360.256439-83.76706s54.169366 51.935577 61.429178 113.923202-19.545648 139.611767-82.091719 183.170639z" stroke="url(#b)"/><path d="m423.336113 254.46646-137.074631 297.280139s-55.844707-11.168941-103.871155-33.506824-78.18259-47.468001-78.18259-47.468001z" stroke="url(#b)"/><path d="m423.581383 241.249134-417.10188282 89.628521s-11.72738848-38.25139-3.62767217-76.502781c8.09524869-38.255858 28.75779029-66.736658 28.75779029-66.736658z" stroke="url(#b)"/><path d="m423.581383 207.183863 15.13615-182.6121919s40.766636 2.0774231 66.977907 6.1116447" stroke="url(#c)"/><path d="m423.581383 207.183863 96.669422-207.183863s65.338307 8.37670606 129.55972 32.9483772c64.221413 24.571671 115.786182 58.4493041 143.708536 87.4885518z" stroke="url(#c)"/></g></g></g><path d="m0 0h1000v715.705765h-1000z" fill="url(#d)"/></g></svg>