<?xml version="1.0" encoding="UTF-8"?>
<svg width="24px" height="20px" viewBox="0 0 24 20" version="1.1" xmlns="http://www.w3.org/2000/svg" xmlns:xlink="http://www.w3.org/1999/xlink">
    <!-- Generator: Sketch 57.1 (83088) - https://sketch.com -->
    <title>icon-twitter</title>
    <desc>Created with Sketch.</desc>
    <g id="Website-CakeDefi.com" stroke="none" stroke-width="1" fill="none" fill-rule="evenodd">
        <g id="Cake-website-HD" transform="translate(-217.000000, -3994.000000)">
            <g id="Footer" transform="translate(0.000000, 3444.000000)">
                <g id="icon-twitter" transform="translate(213.000000, 544.000000)">
                    <rect id="Rectangle" x="0" y="0" width="32" height="32"></rect>
                    <g id="Twitter-black" transform="translate(4.000000, 6.000000)" fill="#FFFFFF">
                        <path d="M24.0000095,2.3675 C23.118155,2.7690895 22.16869,3.040665 21.17274,3.16201 C22.18982,2.53796 22.97024,1.54843 23.33791,0.369665 C22.38563,0.94749 21.33333,1.36786 20.20919,1.59321 C19.313255,0.61235 18.03275,-0.000145 16.6156,-0.000145 C13.89822,-0.000145 11.693605,2.2606 11.693605,5.048605 C11.693605,5.444416 11.735866,5.82867 11.820388,6.19848 C7.728118,5.9875735 4.100738,3.97963 1.670738,0.92148 C1.24672,1.669765 1.004423,2.53795 1.004423,3.46247 C1.004423,5.213285 1.873593,6.758965 3.194948,7.66471 C2.389173,7.6401525 1.628473,7.4104665 0.963568,7.03488 L0.963568,7.0969965 C0.963568,9.5440915 2.661048,11.5852615 4.914968,12.0475215 C4.502219,12.165976 4.066933,12.225203 3.617558,12.225203 C3.3006005,12.225203 2.990688,12.1948675 2.690633,12.13564 C3.317503,14.140695 5.134723,15.60115 7.290033,15.640155 C5.605228,16.995155 3.480913,17.80267 1.174883,17.80267 C0.77763,17.80267 0.384603,17.779557 2.8e-05,17.733331 C2.179283,19.163451 4.768473,19.999855 7.547828,19.999855 C16.605778,19.999855 21.557328,12.307551 21.557328,5.635101 C21.557328,5.415527 21.553102,5.195953 21.5446495,4.980711 C22.5067895,4.268541 23.3421495,3.380131 24.0000095,2.367491" id="Path"></path>
                    </g>
                </g>
            </g>
        </g>
    </g>
</svg>