<?xml version="1.0" encoding="UTF-8"?>
<svg width="24px" height="21px" viewBox="0 0 24 21" version="1.1" xmlns="http://www.w3.org/2000/svg" xmlns:xlink="http://www.w3.org/1999/xlink">
    <!-- Generator: Sketch 57.1 (83088) - https://sketch.com -->
    <title>icon-telegram</title>
    <desc>Created with Sketch.</desc>
    <g id="Website-CakeDefi.com" stroke="none" stroke-width="1" fill="none" fill-rule="evenodd">
        <g id="Cake-website-HD" transform="translate(-409.000000, -3994.000000)">
            <g id="Footer" transform="translate(0.000000, 3444.000000)">
                <g id="icon-telegram" transform="translate(405.000000, 544.000000)">
                    <rect id="Rectangle" x="0" y="0" width="32" height="32"></rect>
                    <path d="M16.7803435,21.8365447 C16.8079593,21.8567963 16.8226877,21.8678427 16.8392572,21.878889 C18.5808943,23.1713089 20.3243725,24.4618878 22.0623276,25.7579899 C22.3090288,25.9402542 22.5759816,26.0728101 22.8705503,26.1501344 C23.4155023,26.2974187 23.8058057,26.1169954 24.0635533,25.6143877 C24.0893281,25.5628381 24.1095797,25.5131297 24.1316723,25.4615802 C24.2513408,25.1780578 24.3028903,24.876125 24.3654862,24.5778742 C24.768677,22.6889528 25.1700268,20.7981902 25.5695355,18.9074277 C25.9708853,17.0185063 26.3740761,15.1277438 26.7754259,13.2388223 C27.1546831,11.4529999 27.5339402,9.66901849 27.9150384,7.88503711 C27.9868395,7.55180633 28.0347069,7.2204166 27.968429,6.88166266 C27.8377141,6.22624741 27.2817158,5.87276503 26.6373469,6.04214201 C26.300434,6.1305126 25.9819316,6.27595587 25.6560651,6.40114755 C22.1967245,7.73407068 18.7373839,9.06883487 15.2798844,10.4035991 C12.2955358,11.5542578 9.31118718,12.7030756 6.33052066,13.8574165 C5.7800455,14.0691377 5.22036507,14.2569252 4.6901415,14.5165138 C4.45080447,14.6325002 4.23540115,14.7761024 4.0973221,15.0154395 C3.92058091,15.3284187 3.9850178,15.5953715 4.28695066,15.7923643 C4.46921502,15.9120328 4.68093623,15.954377 4.88529323,16.0169729 C6.43914285,16.4901238 7.99299247,16.9651157 9.54500104,17.4401077 C9.81011283,17.521114 10.0733836,17.6021204 10.3292901,17.6812857 C10.360588,17.6610341 10.3771575,17.6536699 10.393727,17.6426236 C14.2691457,15.2013859 18.1445645,12.7638304 22.0199833,10.3244337 C22.3716246,10.1016662 22.723266,9.8770576 23.0749073,9.65429006 C23.2479664,9.54566787 23.4302307,9.47386676 23.6382698,9.5125289 C23.8223752,9.54198576 23.8720837,9.66165428 23.7560973,9.8089386 C23.6953425,9.88626287 23.6217003,9.95438187 23.5480582,10.0206598 C20.4587695,12.8448367 17.3676397,15.6671726 14.278351,18.4931906 C13.9893055,18.7546202 13.7021011,19.017891 13.4222609,19.2737975 C13.2749766,21.162719 13.1295333,23.038753 12.982249,24.9221513 C13.0245932,24.9221513 13.0558911,24.9239924 13.085348,24.9221513 C13.1166459,24.9203103 13.1479438,24.9166282 13.1792417,24.909264 C13.5732273,24.8245755 13.8990939,24.6110132 14.1826162,24.3422193 C14.8048925,23.7549231 15.4142814,23.1565805 16.0291934,22.5637611 C16.2777357,22.322583 16.526278,22.083246 16.7803435,21.8365447" id="Path" fill="#FFFFFF"></path>
                </g>
            </g>
        </g>
    </g>
</svg>