<?xml version="1.0" encoding="UTF-8"?>
<svg width="24px" height="20px" viewBox="0 0 24 20" version="1.1" xmlns="http://www.w3.org/2000/svg" xmlns:xlink="http://www.w3.org/1999/xlink">
    <!-- Generator: Sketch 57.1 (83088) - https://sketch.com -->
    <title>icon-reddit</title>
    <desc>Created with Sketch.</desc>
    <g id="Website-CakeDefi.com" stroke="none" stroke-width="1" fill="none" fill-rule="evenodd">
        <g id="Cake-website-HD" transform="translate(-281.000000, -3994.000000)">
            <g id="Footer" transform="translate(0.000000, 3444.000000)">
                <g id="icon-reddit" transform="translate(277.000000, 544.000000)">
                    <rect id="Rectangle" x="0" y="0" width="32" height="32"></rect>
                    <g id="Reddit-black" transform="translate(4.000000, 6.000000)" fill="#FFFFFF">
                        <path d="M15.57,13.163 C14.673,13.163 13.91925,12.44213 13.91925,11.55331 C13.91925,10.664485 14.673,9.91984 15.57,9.91984 C16.467,9.91984 17.1945,10.66449 17.1945,11.55331 C17.1945,12.442135 16.467,13.163 15.57,13.163 M15.951,16.287255 C15.1155,17.114395 13.827,17.516445 12.012,17.516445 C12.00825,17.516445 12.00375,17.515702 11.99925,17.515702 C11.9955,17.515702 11.991,17.516445 11.9865,17.516445 C10.1715,17.516445 8.88375,17.114394 8.049,16.287255 C7.7925,16.0330935 7.7925,15.622125 8.049,15.368705 C8.30475,15.115286 8.7195,15.115286 8.976,15.368705 C9.552,15.939455 10.53675,16.217395 11.9865,16.217395 C11.991,16.217395 11.9955,16.218138 11.99925,16.218138 C12.00375,16.218138 12.00825,16.217395 12.012,16.217395 C13.46175,16.217395 14.44725,15.939452 15.024,15.368705 C15.2805,15.114543 15.69525,15.115286 15.951,15.368705 C16.20675,15.6228665 16.20675,16.033835 15.951,16.287255 M6.8055,11.55331 C6.8055,10.66523 7.55775,9.91984 8.454,9.91984 C9.351,9.91984 10.0785,10.66523 10.0785,11.55331 C10.0785,12.442135 9.351,13.163 8.454,13.163 C7.55775,13.163 6.8055,12.44213 6.8055,11.55331 M19.998,1.29916 C20.6055,1.29916 21.09975,1.788904 21.09975,2.390125 C21.09975,2.992085 20.6055,3.48183 19.998,3.48183 C19.3905,3.48183 18.89625,2.992086 18.89625,2.390125 C18.89625,1.788905 19.3905,1.29916 19.998,1.29916 M24,9.78536 C24,8.20911 22.70625,6.927155 21.1155,6.927155 C20.427,6.927155 19.79475,7.1679395 19.29825,7.568505 C17.5395,6.473085 15.3075,5.813155 12.915,5.67344 L14.163,1.76366 L17.59275,2.564045 C17.68275,3.80141 18.72675,4.7809 19.998,4.7809 C21.32775,4.7809 22.41,3.708515 22.41,2.390145 C22.41,1.072515 21.32775,0.000135 19.998,0.000135 C19.068,0.000135 18.2595,0.52481 17.85675,1.29101 L13.87125,0.361315 C13.5375,0.283283 13.2,0.473533 13.0965,0.797552 L11.547,5.650407 C8.96925,5.7128325 6.546,6.374992 4.65825,7.534327 C4.1685,7.154571 3.55275,6.927162 2.8845,6.927162 C1.29375,6.927162 -1.13686838e-13,8.209117 -1.13686838e-13,9.785367 C-1.13686838e-13,10.759652 0.495,11.620977 1.24875,12.136732 C1.21725,12.3633965 1.20075,12.5915475 1.20075,12.822672 C1.20075,14.792797 2.3565,16.625437 4.455,17.982472 C6.4665,19.283752 9.129,20.000162 11.95125,20.000162 C14.7735,20.000162 17.436,19.283752 19.4475,17.982472 C21.546,16.625457 22.70175,14.792817 22.70175,12.822672 C22.70175,12.612357 22.6875,12.4035285 22.66125,12.196187 C23.46525,11.688607 24,10.797552 24,9.785367" id="Shape"></path>
                    </g>
                </g>
            </g>
        </g>
    </g>
</svg>