<?xml version="1.0" encoding="UTF-8"?>
<svg width="24px" height="17px" viewBox="0 0 24 17" version="1.1" xmlns="http://www.w3.org/2000/svg" xmlns:xlink="http://www.w3.org/1999/xlink">
    <!-- Generator: Sketch 57.1 (83088) - https://sketch.com -->
    <title>icon-youtube</title>
    <desc>Created with Sketch.</desc>
    <g id="Website-CakeDefi.com" stroke="none" stroke-width="1" fill="none" fill-rule="evenodd">
        <g id="Cake-website-HD" transform="translate(-345.000000, -3996.000000)">
            <g id="Footer" transform="translate(0.000000, 3444.000000)">
                <g id="icon-youtube" transform="translate(341.000000, 544.000000)">
                    <rect id="Rectangle" x="0" y="0" width="32" height="32"></rect>
                    <g id="Youtube-black" transform="translate(4.000000, 8.000000)" fill="#FFFFFF">
                        <path d="M9.522,11.635 L9.52125,4.8439 L16.00575,8.25115 L9.522,11.635 L9.522,11.635 Z M23.76,3.6671 C23.76,3.6671 23.52525,2.00162 22.806,1.2682 C21.89325,0.305165 20.87025,0.300635 20.4015,0.24474 C17.043,1.6e-05 12.00525,1.6e-05 12.00525,1.6e-05 L11.99475,1.6e-05 C11.99475,1.6e-05 6.957,1.6e-05 3.5985,0.24474 C3.129,0.3006335 2.10675,0.3051655 1.19325,1.2682 C0.474,2.001615 0.24,3.6671 0.24,3.6671 C0.24,3.6671 8.52651283e-14,5.62338 8.52651283e-14,7.578905 L8.52651283e-14,9.412825 C8.52651283e-14,11.369105 0.24,13.32463 0.24,13.32463 C0.24,13.32463 0.474,14.99011 1.19325,15.72353 C2.10675,16.686565 3.306,16.65635 3.84,16.75681 C5.76,16.9426185 12,17.000016 12,17.000016 C12,17.000016 17.043,16.99247 20.4015,16.747746 C20.87025,16.691097 21.89325,16.686565 22.806,15.723531 C23.52525,14.990116 23.76,13.324631 23.76,13.324631 C23.76,13.324631 24,11.369106 24,9.412826 L24,7.578906 C24,5.623381 23.76,3.667101 23.76,3.667101 L23.76,3.667101 L23.76,3.6671 Z" id="Shape"></path>
                    </g>
                </g>
            </g>
        </g>
    </g>
</svg>